G04 (created by PCBNEW (22-Jun-2014 BZR 4027)-stable) date Thu 14 Apr 2016 19:51:08 BST*
%MOIN*%
G04 Gerber Fmt 3.4, Leading zero omitted, Abs format*
%FSLAX34Y34*%
G01*
G70*
G90*
G04 APERTURE LIST*
%ADD10C,0.00590551*%
%ADD11C,0.005*%
%ADD12C,0.0026*%
%ADD13C,0.004*%
G04 APERTURE END LIST*
G54D10*
G54D11*
X81800Y-71200D02*
X81800Y-70300D01*
X81800Y-70300D02*
X81150Y-70300D01*
X80450Y-71200D02*
X79800Y-71200D01*
X79800Y-71200D02*
X79800Y-70300D01*
X79800Y-70300D02*
X80450Y-70300D01*
X81150Y-71200D02*
X81800Y-71200D01*
G54D12*
X80839Y-69561D02*
X80761Y-69561D01*
X80761Y-69561D02*
X80761Y-69639D01*
X80839Y-69639D02*
X80761Y-69639D01*
X80839Y-69561D02*
X80839Y-69639D01*
X80623Y-69325D02*
X80486Y-69325D01*
X80486Y-69325D02*
X80486Y-69423D01*
X80623Y-69423D02*
X80486Y-69423D01*
X80623Y-69325D02*
X80623Y-69423D01*
X80486Y-69325D02*
X80446Y-69325D01*
X80446Y-69325D02*
X80446Y-69796D01*
X80486Y-69796D02*
X80446Y-69796D01*
X80486Y-69325D02*
X80486Y-69796D01*
X80486Y-69816D02*
X80446Y-69816D01*
X80446Y-69816D02*
X80446Y-69875D01*
X80486Y-69875D02*
X80446Y-69875D01*
X80486Y-69816D02*
X80486Y-69875D01*
X81154Y-69325D02*
X81114Y-69325D01*
X81114Y-69325D02*
X81114Y-69796D01*
X81154Y-69796D02*
X81114Y-69796D01*
X81154Y-69325D02*
X81154Y-69796D01*
X81154Y-69816D02*
X81114Y-69816D01*
X81114Y-69816D02*
X81114Y-69875D01*
X81154Y-69875D02*
X81114Y-69875D01*
X81154Y-69816D02*
X81154Y-69875D01*
X80623Y-69325D02*
X80564Y-69325D01*
X80564Y-69325D02*
X80564Y-69423D01*
X80623Y-69423D02*
X80564Y-69423D01*
X80623Y-69325D02*
X80623Y-69423D01*
G54D13*
X80190Y-69305D02*
X81410Y-69305D01*
X81410Y-69305D02*
X81410Y-69895D01*
X81410Y-69895D02*
X80190Y-69895D01*
X80190Y-69895D02*
X80190Y-69305D01*
X81015Y-69403D02*
G75*
G03X80583Y-69404I-215J-196D01*
G74*
G01*
X81015Y-69796D02*
G75*
G03X81016Y-69404I-215J196D01*
G74*
G01*
X80584Y-69796D02*
G75*
G03X81016Y-69795I215J196D01*
G74*
G01*
X80584Y-69403D02*
G75*
G03X80583Y-69795I215J-196D01*
G74*
G01*
G54D10*
X81050Y-66850D02*
X80650Y-66850D01*
X80650Y-66850D02*
X80650Y-67450D01*
X80650Y-67450D02*
X81050Y-67450D01*
X81050Y-67450D02*
X81050Y-66850D01*
X80150Y-65950D02*
X80150Y-68350D01*
X80150Y-68350D02*
X80350Y-68350D01*
X80350Y-65950D02*
X80150Y-65950D01*
X81550Y-65950D02*
X81350Y-65950D01*
X81550Y-65950D02*
X81550Y-68350D01*
X81550Y-68350D02*
X81350Y-68350D01*
M02*
